<svg width="315" height="157" viewBox="0 0 315 157" fill="none" xmlns="http://www.w3.org/2000/svg">
<path d="M79.6209 9.89097C94.5963 0.0407159 111.412 -1.96321 132.518 3.58336C142.05 6.06908 150.02 7.75721 157.861 7.88707C165.702 7.75722 173.672 6.08762 183.204 3.58336C204.311 -1.94466 221.107 0.0407197 236.083 9.90953C251.634 20.1493 261.296 36.8628 261.296 53.5765V123.975C273.075 116.054 282.699 105.611 289.648 98.098C297.155 89.9729 304.234 82.3115 311.554 88.9711C313.635 90.8817 314.806 93.5529 314.862 96.5209C315.066 107.391 296.987 126.183 296.802 126.369C267.482 155.381 238.201 156.866 157.843 156.866C77.5031 156.866 48.2212 155.381 18.8836 126.369C18.7163 126.183 0.619605 107.391 0.823984 96.5209C0.879724 93.5529 2.04981 90.8817 4.11207 88.9896C11.4511 82.2929 18.5492 89.9729 26.0369 98.098C32.9671 105.611 42.6101 116.054 54.3894 123.975V53.558C54.3895 36.8628 64.0511 20.1308 79.6209 9.89097ZM128.301 19.555C111.839 15.2143 99.6317 16.4943 88.7253 23.6732C77.7633 30.8893 70.9442 42.335 70.9441 53.5394V135.978C90.4159 140.003 116.837 140.337 157.843 140.337C198.848 140.337 225.269 140.003 244.741 135.978V53.558C244.741 42.3536 237.94 30.9078 226.96 23.6918C216.053 16.5315 203.846 15.2514 187.385 19.555C178.708 21.8367 168.563 24.267 157.954 24.3968H157.731C147.104 24.267 136.977 21.8182 128.301 19.555ZM157.845 50.7953C176.704 50.7954 192.032 66.1181 192.032 84.9281C192.032 103.738 176.704 119.061 157.845 119.061C139.005 119.061 123.658 103.757 123.658 84.9281C123.658 66.0994 138.987 50.7953 157.845 50.7953ZM157.845 67.3236C148.128 67.3236 140.213 75.2262 140.213 84.9281C140.213 94.6299 148.128 102.533 157.845 102.533C167.563 102.532 175.477 94.6483 175.477 84.9281C175.477 75.2078 167.563 67.3237 157.845 67.3236Z" fill="white"/>
</svg>
