<?xml version="1.0" encoding="UTF-8"?><svg id="uuid-b4a1ea7a-d777-40ea-96d9-27406b2a7afb" xmlns="http://www.w3.org/2000/svg" viewBox="0 0 262.3 260.6"><defs><style>.uuid-3145763d-21d5-415d-bc82-392f7037cc32{fill:#fd615e;}</style></defs><path class="uuid-3145763d-21d5-415d-bc82-392f7037cc32" d="M232,137.5c-1.1-1-4.3-3-8.8,1.1-1.3,1.2-2.8,2.8-4.7,4.9-4.8,5.2-11.5,12.5-19.8,17.8v-47.6c0-10.8-6.3-21.7-16.3-28.3-9.7-6.4-20.6-7.7-34.4-4.1-6.3,1.7-11.6,2.8-16.9,2.9-5.2,0-10.5-1.2-16.9-2.9-13.7-3.6-24.7-2.3-34.4,4.1-10.1,6.6-16.3,17.5-16.3,28.3v47.6c-8.3-5.3-15-12.6-19.8-17.8-1.9-2.1-3.4-3.7-4.7-4.9-4.6-4.1-7.7-2.1-8.8-1.1-1.2,1.1-1.9,2.7-2,4.5-.1,6.9,11.6,19.1,11.7,19.3,19.2,19,38.4,20,91.2,20s72-1,91.2-20c.1-.1,11.9-12.3,11.7-19.3,0-1.8-.7-3.4-2-4.5ZM189,168.6c-12.9,2.8-30.5,3-57.9,3s-45-.2-57.9-3v-54.9c0-7.6,4.6-15.4,12-20.2,7.3-4.8,15.5-5.7,26.6-2.8,7,1.9,13,3.1,19.3,3.2h.1c6.2,0,12.2-1.3,19.3-3.2,11-2.9,19.2-2,26.6,2.8,7.4,4.9,12,12.6,12,20.2v54.9Z"/><path class="uuid-3145763d-21d5-415d-bc82-392f7037cc32" d="M135.8,110.1h-9.3c-4,13.3-6.4,15.6-19.6,19.6v9.3c13.3,4,15.6,6.4,19.6,19.6h9.3c4-13.3,6.4-15.6,19.6-19.6v-9.3c-13.3-4-15.6-6.4-19.6-19.6ZM131.1,144.1c-2.4-4.3-5.4-7.3-9.7-9.7,4.3-2.4,7.3-5.4,9.7-9.7,2.4,4.3,5.4,7.3,9.7,9.7-4.3,2.4-7.3,5.4-9.7,9.7Z"/></svg>